<?xml version="1.0" encoding="UTF-8"?><svg xmlns="http://www.w3.org/2000/svg" xmlns:xlink="http://www.w3.org/1999/xlink" fill-opacity="1" color-rendering="auto" color-interpolation="auto" text-rendering="auto" stroke="black" stroke-linecap="square" width="1415" stroke-miterlimit="10" shape-rendering="auto" stroke-opacity="1" fill="black" stroke-dasharray="none" font-weight="normal" stroke-width="1" height="842" font-family="'Dialog'" font-style="normal" stroke-linejoin="miter" font-size="12px" stroke-dashoffset="0" image-rendering="auto">
  <!--Generated by ySVG 2.5-->
  <defs id="genericDefs"/>
  <g>
    <defs id="defs1">
      <clipPath clipPathUnits="userSpaceOnUse" id="clipPath1">
        <path d="M0 0 L1415 0 L1415 842 L0 842 L0 0 Z"/>
      </clipPath>
      <clipPath clipPathUnits="userSpaceOnUse" id="clipPath2">
        <path d="M-15 -15 L1400 -15 L1400 827 L-15 827 L-15 -15 Z"/>
      </clipPath>
    </defs>
    <g fill="white" text-rendering="geometricPrecision" shape-rendering="geometricPrecision" transform="translate(15,15)" stroke="white">
      <rect x="-15" width="1415" height="842" y="-15" clip-path="url(#clipPath2)" stroke="none"/>
    </g>
    <g fill="rgb(255,204,0)" text-rendering="geometricPrecision" shape-rendering="geometricPrecision" transform="matrix(1,0,0,1,15,15)" stroke="rgb(255,204,0)">
      <rect x="875.2258" width="30" height="30" y="170" clip-path="url(#clipPath2)" stroke="none"/>
    </g>
    <g text-rendering="geometricPrecision" stroke-miterlimit="1.45" shape-rendering="geometricPrecision" transform="matrix(1,0,0,1,15,15)" stroke-linecap="butt">
      <rect fill="none" x="875.2258" width="30" height="30" y="170" clip-path="url(#clipPath2)"/>
      <text x="883.4398" xml:space="preserve" y="189.656" clip-path="url(#clipPath2)" font-family="sans-serif" stroke="none">pii</text>
    </g>
    <g fill="rgb(255,204,0)" text-rendering="geometricPrecision" shape-rendering="geometricPrecision" transform="matrix(1,0,0,1,15,15)" stroke="rgb(255,204,0)">
      <rect x="701.0179" width="30" height="30" y="170" clip-path="url(#clipPath2)" stroke="none"/>
    </g>
    <g text-rendering="geometricPrecision" stroke-miterlimit="1.45" shape-rendering="geometricPrecision" transform="matrix(1,0,0,1,15,15)" stroke-linecap="butt">
      <rect fill="none" x="701.0179" width="30" height="30" y="170" clip-path="url(#clipPath2)"/>
      <text x="668.5575" xml:space="preserve" y="189.656" clip-path="url(#clipPath2)" font-family="sans-serif" stroke="none">user information</text>
    </g>
    <g fill="rgb(255,204,0)" text-rendering="geometricPrecision" shape-rendering="geometricPrecision" transform="matrix(1,0,0,1,15,15)" stroke="rgb(255,204,0)">
      <rect x="1187.2603" width="30" height="30" y="404" clip-path="url(#clipPath2)" stroke="none"/>
    </g>
    <g text-rendering="geometricPrecision" stroke-miterlimit="1.45" shape-rendering="geometricPrecision" transform="matrix(1,0,0,1,15,15)" stroke-linecap="butt">
      <rect fill="none" x="1187.2603" width="30" height="30" y="404" clip-path="url(#clipPath2)"/>
      <text x="1134.2079" xml:space="preserve" y="423.656" clip-path="url(#clipPath2)" font-family="sans-serif" stroke="none">registration information</text>
    </g>
    <g fill="rgb(255,204,0)" text-rendering="geometricPrecision" shape-rendering="geometricPrecision" transform="matrix(1,0,0,1,15,15)" stroke="rgb(255,204,0)">
      <rect x="1024.7349" width="30" height="30" y="404" clip-path="url(#clipPath2)" stroke="none"/>
    </g>
    <g text-rendering="geometricPrecision" stroke-miterlimit="1.45" shape-rendering="geometricPrecision" transform="matrix(1,0,0,1,15,15)" stroke-linecap="butt">
      <rect fill="none" x="1024.7349" width="30" height="30" y="404" clip-path="url(#clipPath2)"/>
      <text x="980.2625" xml:space="preserve" y="423.656" clip-path="url(#clipPath2)" font-family="sans-serif" stroke="none">shipping information</text>
    </g>
    <g fill="rgb(255,204,0)" text-rendering="geometricPrecision" shape-rendering="geometricPrecision" transform="matrix(1,0,0,1,15,15)" stroke="rgb(255,204,0)">
      <rect x="344.8067" width="30" height="30" y="279" clip-path="url(#clipPath2)" stroke="none"/>
    </g>
    <g text-rendering="geometricPrecision" stroke-miterlimit="1.45" shape-rendering="geometricPrecision" transform="matrix(1,0,0,1,15,15)" stroke-linecap="butt">
      <rect fill="none" x="344.8067" width="30" height="30" y="279" clip-path="url(#clipPath2)"/>
      <text x="314.3084" xml:space="preserve" y="298.656" clip-path="url(#clipPath2)" font-family="sans-serif" stroke="none">photo metadata</text>
    </g>
    <g fill="rgb(255,204,0)" text-rendering="geometricPrecision" shape-rendering="geometricPrecision" transform="matrix(1,0,0,1,15,15)" stroke="rgb(255,204,0)">
      <rect x="1282.3131" width="30" height="30" y="170" clip-path="url(#clipPath2)" stroke="none"/>
    </g>
    <g text-rendering="geometricPrecision" stroke-miterlimit="1.45" shape-rendering="geometricPrecision" transform="matrix(1,0,0,1,15,15)" stroke-linecap="butt">
      <rect fill="none" x="1282.3131" width="30" height="30" y="170" clip-path="url(#clipPath2)"/>
      <text x="1235.5667" xml:space="preserve" y="189.656" clip-path="url(#clipPath2)" font-family="sans-serif" stroke="none">customer information</text>
    </g>
    <g fill="rgb(255,204,0)" text-rendering="geometricPrecision" shape-rendering="geometricPrecision" transform="matrix(1,0,0,1,15,15)" stroke="rgb(255,204,0)">
      <rect x="617.0643" width="30" height="30" y="639" clip-path="url(#clipPath2)" stroke="none"/>
    </g>
    <g text-rendering="geometricPrecision" stroke-miterlimit="1.45" shape-rendering="geometricPrecision" transform="matrix(1,0,0,1,15,15)" stroke-linecap="butt">
      <rect fill="none" x="617.0643" width="30" height="30" y="639" clip-path="url(#clipPath2)"/>
      <text x="619.4282" xml:space="preserve" y="658.656" clip-path="url(#clipPath2)" font-family="sans-serif" stroke="none">guid</text>
    </g>
    <g fill="rgb(255,204,0)" text-rendering="geometricPrecision" shape-rendering="geometricPrecision" transform="matrix(1,0,0,1,15,15)" stroke="rgb(255,204,0)">
      <rect x="426.0962" width="30" height="30" y="0" clip-path="url(#clipPath2)" stroke="none"/>
    </g>
    <g text-rendering="geometricPrecision" stroke-miterlimit="1.45" shape-rendering="geometricPrecision" transform="matrix(1,0,0,1,15,15)" stroke-linecap="butt">
      <rect fill="none" x="426.0962" width="30" height="30" y="0" clip-path="url(#clipPath2)"/>
      <text x="407.64" xml:space="preserve" y="19.656" clip-path="url(#clipPath2)" font-family="sans-serif" stroke="none">information</text>
    </g>
    <g fill="rgb(255,204,0)" text-rendering="geometricPrecision" shape-rendering="geometricPrecision" transform="matrix(1,0,0,1,15,15)" stroke="rgb(255,204,0)">
      <rect x="204.3496" width="30" height="30" y="404" clip-path="url(#clipPath2)" stroke="none"/>
    </g>
    <g text-rendering="geometricPrecision" stroke-miterlimit="1.45" shape-rendering="geometricPrecision" transform="matrix(1,0,0,1,15,15)" stroke-linecap="butt">
      <rect fill="none" x="204.3496" width="30" height="30" y="404" clip-path="url(#clipPath2)"/>
      <text x="197.7735" xml:space="preserve" y="423.656" clip-path="url(#clipPath2)" font-family="sans-serif" stroke="none">altitude</text>
    </g>
    <g fill="rgb(255,204,0)" text-rendering="geometricPrecision" shape-rendering="geometricPrecision" transform="matrix(1,0,0,1,15,15)" stroke="rgb(255,204,0)">
      <rect x="1101.7075" width="30" height="30" y="279" clip-path="url(#clipPath2)" stroke="none"/>
    </g>
    <g text-rendering="geometricPrecision" stroke-miterlimit="1.45" shape-rendering="geometricPrecision" transform="matrix(1,0,0,1,15,15)" stroke-linecap="butt">
      <rect fill="none" x="1101.7075" width="30" height="30" y="279" clip-path="url(#clipPath2)"/>
      <text x="1059.3531" xml:space="preserve" y="298.656" clip-path="url(#clipPath2)" font-family="sans-serif" stroke="none">account information</text>
    </g>
    <g fill="rgb(255,204,0)" text-rendering="geometricPrecision" shape-rendering="geometricPrecision" transform="matrix(1,0,0,1,15,15)" stroke="rgb(255,204,0)">
      <rect x="841.4048" width="30" height="30" y="482" clip-path="url(#clipPath2)" stroke="none"/>
    </g>
    <g text-rendering="geometricPrecision" stroke-miterlimit="1.45" shape-rendering="geometricPrecision" transform="matrix(1,0,0,1,15,15)" stroke-linecap="butt">
      <rect fill="none" x="841.4048" width="30" height="30" y="482" clip-path="url(#clipPath2)"/>
      <text x="811.3925" xml:space="preserve" y="501.656" clip-path="url(#clipPath2)" font-family="sans-serif" stroke="none">device identifier</text>
    </g>
    <g fill="rgb(255,204,0)" text-rendering="geometricPrecision" shape-rendering="geometricPrecision" transform="matrix(1,0,0,1,15,15)" stroke="rgb(255,204,0)">
      <rect x="66.0885" width="30" height="30" y="279" clip-path="url(#clipPath2)" stroke="none"/>
    </g>
    <g text-rendering="geometricPrecision" stroke-miterlimit="1.45" shape-rendering="geometricPrecision" transform="matrix(1,0,0,1,15,15)" stroke-linecap="butt">
      <rect fill="none" x="66.0885" width="30" height="30" y="279" clip-path="url(#clipPath2)"/>
      <text x="22.7861" xml:space="preserve" y="298.656" clip-path="url(#clipPath2)" font-family="sans-serif" stroke="none">network information</text>
    </g>
    <g fill="rgb(255,204,0)" text-rendering="geometricPrecision" shape-rendering="geometricPrecision" transform="matrix(1,0,0,1,15,15)" stroke="rgb(255,204,0)">
      <rect x="1172.2603" width="30" height="30" y="482" clip-path="url(#clipPath2)" stroke="none"/>
    </g>
    <g text-rendering="geometricPrecision" stroke-miterlimit="1.45" shape-rendering="geometricPrecision" transform="matrix(1,0,0,1,15,15)" stroke-linecap="butt">
      <rect fill="none" x="1172.2603" width="30" height="30" y="482" clip-path="url(#clipPath2)"/>
      <text x="1134.964" xml:space="preserve" y="501.656" clip-path="url(#clipPath2)" font-family="sans-serif" stroke="none">billing information</text>
    </g>
    <g fill="rgb(255,204,0)" text-rendering="geometricPrecision" shape-rendering="geometricPrecision" transform="matrix(1,0,0,1,15,15)" stroke="rgb(255,204,0)">
      <rect x="1083.9643" width="30" height="30" y="639" clip-path="url(#clipPath2)" stroke="none"/>
    </g>
    <g text-rendering="geometricPrecision" stroke-miterlimit="1.45" shape-rendering="geometricPrecision" transform="matrix(1,0,0,1,15,15)" stroke-linecap="butt">
      <rect fill="none" x="1083.9643" width="30" height="30" y="639" clip-path="url(#clipPath2)"/>
      <text x="1059.6281" xml:space="preserve" y="658.656" clip-path="url(#clipPath2)" font-family="sans-serif" stroke="none">serial number</text>
    </g>
    <g fill="rgb(255,204,0)" text-rendering="geometricPrecision" shape-rendering="geometricPrecision" transform="matrix(1,0,0,1,15,15)" stroke="rgb(255,204,0)">
      <rect x="628.8175" width="30" height="30" y="404" clip-path="url(#clipPath2)" stroke="none"/>
    </g>
    <g text-rendering="geometricPrecision" stroke-miterlimit="1.45" shape-rendering="geometricPrecision" transform="matrix(1,0,0,1,15,15)" stroke-linecap="butt">
      <rect fill="none" x="628.8175" width="30" height="30" y="404" clip-path="url(#clipPath2)"/>
      <text x="582.803" xml:space="preserve" y="423.656" clip-path="url(#clipPath2)" font-family="sans-serif" stroke="none">geographical location</text>
    </g>
    <g fill="rgb(255,204,0)" text-rendering="geometricPrecision" shape-rendering="geometricPrecision" transform="matrix(1,0,0,1,15,15)" stroke="rgb(255,204,0)">
      <rect x="211.8496" width="30" height="30" y="61" clip-path="url(#clipPath2)" stroke="none"/>
    </g>
    <g text-rendering="geometricPrecision" stroke-miterlimit="1.45" shape-rendering="geometricPrecision" transform="matrix(1,0,0,1,15,15)" stroke-linecap="butt">
      <rect fill="none" x="211.8496" width="30" height="30" y="61" clip-path="url(#clipPath2)"/>
      <text x="166.6452" xml:space="preserve" y="80.656" clip-path="url(#clipPath2)" font-family="sans-serif" stroke="none">technical information</text>
    </g>
    <g fill="rgb(255,204,0)" text-rendering="geometricPrecision" shape-rendering="geometricPrecision" transform="matrix(1,0,0,1,15,15)" stroke="rgb(255,204,0)">
      <rect x="211.8496" width="30" height="30" y="279" clip-path="url(#clipPath2)" stroke="none"/>
    </g>
    <g text-rendering="geometricPrecision" stroke-miterlimit="1.45" shape-rendering="geometricPrecision" transform="matrix(1,0,0,1,15,15)" stroke-linecap="butt">
      <rect fill="none" x="211.8496" width="30" height="30" y="279" clip-path="url(#clipPath2)"/>
      <text x="153.3911" xml:space="preserve" y="298.656" clip-path="url(#clipPath2)" font-family="sans-serif" stroke="none">device sensor information</text>
    </g>
    <g fill="rgb(255,204,0)" text-rendering="geometricPrecision" shape-rendering="geometricPrecision" transform="matrix(1,0,0,1,15,15)" stroke="rgb(255,204,0)">
      <rect x="1016.7615" width="30" height="30" y="639" clip-path="url(#clipPath2)" stroke="none"/>
    </g>
    <g text-rendering="geometricPrecision" stroke-miterlimit="1.45" shape-rendering="geometricPrecision" transform="matrix(1,0,0,1,15,15)" stroke-linecap="butt">
      <rect fill="none" x="1016.7615" width="30" height="30" y="639" clip-path="url(#clipPath2)"/>
      <text x="1017.8954" xml:space="preserve" y="658.656" clip-path="url(#clipPath2)" font-family="sans-serif" stroke="none">gsfid</text>
    </g>
    <g fill="rgb(255,204,0)" text-rendering="geometricPrecision" shape-rendering="geometricPrecision" transform="matrix(1,0,0,1,15,15)" stroke="rgb(255,204,0)">
      <rect x="1140.8008" width="30" height="30" y="732" clip-path="url(#clipPath2)" stroke="none"/>
    </g>
    <g text-rendering="geometricPrecision" stroke-miterlimit="1.45" shape-rendering="geometricPrecision" transform="matrix(1,0,0,1,15,15)" stroke-linecap="butt">
      <rect fill="none" x="1140.8008" width="30" height="30" y="732" clip-path="url(#clipPath2)"/>
      <text x="1116.4285" xml:space="preserve" y="751.656" clip-path="url(#clipPath2)" font-family="sans-serif" stroke="none">email address</text>
    </g>
    <g fill="rgb(255,204,0)" text-rendering="geometricPrecision" shape-rendering="geometricPrecision" transform="matrix(1,0,0,1,15,15)" stroke="rgb(255,204,0)">
      <rect x="628.8175" width="30" height="30" y="279" clip-path="url(#clipPath2)" stroke="none"/>
    </g>
    <g text-rendering="geometricPrecision" stroke-miterlimit="1.45" shape-rendering="geometricPrecision" transform="matrix(1,0,0,1,15,15)" stroke-linecap="butt">
      <rect fill="none" x="628.8175" width="30" height="30" y="279" clip-path="url(#clipPath2)"/>
      <text x="571.127" xml:space="preserve" y="298.656" clip-path="url(#clipPath2)" font-family="sans-serif" stroke="none">demographic information</text>
    </g>
    <g fill="rgb(255,204,0)" text-rendering="geometricPrecision" shape-rendering="geometricPrecision" transform="matrix(1,0,0,1,15,15)" stroke="rgb(255,204,0)">
      <rect x="473.2159" width="30" height="30" y="279" clip-path="url(#clipPath2)" stroke="none"/>
    </g>
    <g text-rendering="geometricPrecision" stroke-miterlimit="1.45" shape-rendering="geometricPrecision" transform="matrix(1,0,0,1,15,15)" stroke-linecap="butt">
      <rect fill="none" x="473.2159" width="30" height="30" y="279" clip-path="url(#clipPath2)"/>
      <text x="440.3055" xml:space="preserve" y="298.656" clip-path="url(#clipPath2)" font-family="sans-serif" stroke="none">application instal</text>
    </g>
    <g fill="rgb(255,204,0)" text-rendering="geometricPrecision" shape-rendering="geometricPrecision" transform="matrix(1,0,0,1,15,15)" stroke="rgb(255,204,0)">
      <rect x="930.3167" width="30" height="30" y="639" clip-path="url(#clipPath2)" stroke="none"/>
    </g>
    <g text-rendering="geometricPrecision" stroke-miterlimit="1.45" shape-rendering="geometricPrecision" transform="matrix(1,0,0,1,15,15)" stroke-linecap="butt">
      <rect fill="none" x="930.3167" width="30" height="30" y="639" clip-path="url(#clipPath2)"/>
      <text x="886.7382" xml:space="preserve" y="658.656" clip-path="url(#clipPath2)" font-family="sans-serif" stroke="none">advertising identifier</text>
    </g>
    <g fill="rgb(255,204,0)" text-rendering="geometricPrecision" shape-rendering="geometricPrecision" transform="matrix(1,0,0,1,15,15)" stroke="rgb(255,204,0)">
      <rect x="1236.4317" width="30" height="30" y="732" clip-path="url(#clipPath2)" stroke="none"/>
    </g>
    <g text-rendering="geometricPrecision" stroke-miterlimit="1.45" shape-rendering="geometricPrecision" transform="matrix(1,0,0,1,15,15)" stroke-linecap="butt">
      <rect fill="none" x="1236.4317" width="30" height="30" y="732" clip-path="url(#clipPath2)"/>
      <text x="1209.1735" xml:space="preserve" y="751.656" clip-path="url(#clipPath2)" font-family="sans-serif" stroke="none">phone number</text>
    </g>
    <g fill="rgb(255,204,0)" text-rendering="geometricPrecision" shape-rendering="geometricPrecision" transform="matrix(1,0,0,1,15,15)" stroke="rgb(255,204,0)">
      <rect x="1243.9317" width="30" height="30" y="639" clip-path="url(#clipPath2)" stroke="none"/>
    </g>
    <g text-rendering="geometricPrecision" stroke-miterlimit="1.45" shape-rendering="geometricPrecision" transform="matrix(1,0,0,1,15,15)" stroke-linecap="butt">
      <rect fill="none" x="1243.9317" width="30" height="30" y="639" clip-path="url(#clipPath2)"/>
      <text x="1203.1194" xml:space="preserve" y="658.656" clip-path="url(#clipPath2)" font-family="sans-serif" stroke="none">contact information</text>
    </g>
    <g fill="rgb(255,204,0)" text-rendering="geometricPrecision" shape-rendering="geometricPrecision" transform="matrix(1,0,0,1,15,15)" stroke="rgb(255,204,0)">
      <rect x="844.7381" width="30" height="30" y="639" clip-path="url(#clipPath2)" stroke="none"/>
    </g>
    <g text-rendering="geometricPrecision" stroke-miterlimit="1.45" shape-rendering="geometricPrecision" transform="matrix(1,0,0,1,15,15)" stroke-linecap="butt">
      <rect fill="none" x="844.7381" width="30" height="30" y="639" clip-path="url(#clipPath2)"/>
      <text x="847.648" xml:space="preserve" y="658.656" clip-path="url(#clipPath2)" font-family="sans-serif" stroke="none">imei</text>
    </g>
    <g fill="rgb(255,204,0)" text-rendering="geometricPrecision" shape-rendering="geometricPrecision" transform="matrix(1,0,0,1,15,15)" stroke="rgb(255,204,0)">
      <rect x="766.8095" width="30" height="30" y="639" clip-path="url(#clipPath2)" stroke="none"/>
    </g>
    <g text-rendering="geometricPrecision" stroke-miterlimit="1.45" shape-rendering="geometricPrecision" transform="matrix(1,0,0,1,15,15)" stroke-linecap="butt">
      <rect fill="none" x="766.8095" width="30" height="30" y="639" clip-path="url(#clipPath2)"/>
      <text x="730.8812" xml:space="preserve" y="658.656" clip-path="url(#clipPath2)" font-family="sans-serif" stroke="none">sim serial number</text>
    </g>
    <g fill="rgb(255,204,0)" text-rendering="geometricPrecision" shape-rendering="geometricPrecision" transform="matrix(1,0,0,1,15,15)" stroke="rgb(255,204,0)">
      <rect x="789.8671" width="30" height="30" y="279" clip-path="url(#clipPath2)" stroke="none"/>
    </g>
    <g text-rendering="geometricPrecision" stroke-miterlimit="1.45" shape-rendering="geometricPrecision" transform="matrix(1,0,0,1,15,15)" stroke-linecap="butt">
      <rect fill="none" x="789.8671" width="30" height="30" y="279" clip-path="url(#clipPath2)"/>
      <text x="751.5087" xml:space="preserve" y="298.656" clip-path="url(#clipPath2)" font-family="sans-serif" stroke="none">profile information</text>
    </g>
    <g fill="rgb(255,204,0)" text-rendering="geometricPrecision" shape-rendering="geometricPrecision" transform="matrix(1,0,0,1,15,15)" stroke="rgb(255,204,0)">
      <rect x="480.7159" width="30" height="30" y="170" clip-path="url(#clipPath2)" stroke="none"/>
    </g>
    <g text-rendering="geometricPrecision" stroke-miterlimit="1.45" shape-rendering="geometricPrecision" transform="matrix(1,0,0,1,15,15)" stroke-linecap="butt">
      <rect fill="none" x="480.7159" width="30" height="30" y="170" clip-path="url(#clipPath2)"/>
      <text x="475.9517" xml:space="preserve" y="189.656" clip-path="url(#clipPath2)" font-family="sans-serif" stroke="none">non-pii</text>
    </g>
    <g fill="rgb(255,204,0)" text-rendering="geometricPrecision" shape-rendering="geometricPrecision" transform="matrix(1,0,0,1,15,15)" stroke="rgb(255,204,0)">
      <rect x="66.0885" width="30" height="30" y="639" clip-path="url(#clipPath2)" stroke="none"/>
    </g>
    <g text-rendering="geometricPrecision" stroke-miterlimit="1.45" shape-rendering="geometricPrecision" transform="matrix(1,0,0,1,15,15)" stroke-linecap="butt">
      <rect fill="none" x="66.0885" width="30" height="30" y="639" clip-path="url(#clipPath2)"/>
      <text x="45.3162" xml:space="preserve" y="658.656" clip-path="url(#clipPath2)" font-family="sans-serif" stroke="none">mac address</text>
    </g>
    <g fill="rgb(255,204,0)" text-rendering="geometricPrecision" shape-rendering="geometricPrecision" transform="matrix(1,0,0,1,15,15)" stroke="rgb(255,204,0)">
      <rect x="672.9726" width="30" height="30" y="639" clip-path="url(#clipPath2)" stroke="none"/>
    </g>
    <g text-rendering="geometricPrecision" stroke-miterlimit="1.45" shape-rendering="geometricPrecision" transform="matrix(1,0,0,1,15,15)" stroke-linecap="butt">
      <rect fill="none" x="672.9726" width="30" height="30" y="639" clip-path="url(#clipPath2)"/>
      <text x="659.0644" xml:space="preserve" y="658.656" clip-path="url(#clipPath2)" font-family="sans-serif" stroke="none">android id</text>
    </g>
    <g fill="rgb(255,204,0)" text-rendering="geometricPrecision" shape-rendering="geometricPrecision" transform="matrix(1,0,0,1,15,15)" stroke="rgb(255,204,0)">
      <rect x="640.3429" width="30" height="30" y="61" clip-path="url(#clipPath2)" stroke="none"/>
    </g>
    <g text-rendering="geometricPrecision" stroke-miterlimit="1.45" shape-rendering="geometricPrecision" transform="matrix(1,0,0,1,15,15)" stroke-linecap="butt">
      <rect fill="none" x="640.3429" width="30" height="30" y="61" clip-path="url(#clipPath2)"/>
      <text x="591.8084" xml:space="preserve" y="80.656" clip-path="url(#clipPath2)" font-family="sans-serif" stroke="none">information about you</text>
    </g>
    <g fill="rgb(255,204,0)" text-rendering="geometricPrecision" shape-rendering="geometricPrecision" transform="matrix(1,0,0,1,15,15)" stroke="rgb(255,204,0)">
      <rect x="1330.0825" width="30" height="30" y="732" clip-path="url(#clipPath2)" stroke="none"/>
    </g>
    <g text-rendering="geometricPrecision" stroke-miterlimit="1.45" shape-rendering="geometricPrecision" transform="matrix(1,0,0,1,15,15)" stroke-linecap="butt">
      <rect fill="none" x="1330.0825" width="30" height="30" y="732" clip-path="url(#clipPath2)"/>
      <text x="1307.6903" xml:space="preserve" y="751.656" clip-path="url(#clipPath2)" font-family="sans-serif" stroke="none">person name</text>
    </g>
    <g fill="rgb(255,204,0)" text-rendering="geometricPrecision" shape-rendering="geometricPrecision" transform="matrix(1,0,0,1,15,15)" stroke="rgb(255,204,0)">
      <rect x="211.8496" width="30" height="30" y="170" clip-path="url(#clipPath2)" stroke="none"/>
    </g>
    <g text-rendering="geometricPrecision" stroke-miterlimit="1.45" shape-rendering="geometricPrecision" transform="matrix(1,0,0,1,15,15)" stroke-linecap="butt">
      <rect fill="none" x="211.8496" width="30" height="30" y="170" clip-path="url(#clipPath2)"/>
      <text x="173.8992" xml:space="preserve" y="189.656" clip-path="url(#clipPath2)" font-family="sans-serif" stroke="none">device information</text>
    </g>
    <g fill="rgb(255,204,0)" text-rendering="geometricPrecision" shape-rendering="geometricPrecision" transform="matrix(1,0,0,1,15,15)" stroke="rgb(255,204,0)">
      <rect x="106.479" width="30" height="30" y="404" clip-path="url(#clipPath2)" stroke="none"/>
    </g>
    <g text-rendering="geometricPrecision" stroke-miterlimit="1.45" shape-rendering="geometricPrecision" transform="matrix(1,0,0,1,15,15)" stroke-linecap="butt">
      <rect fill="none" x="106.479" width="30" height="30" y="404" clip-path="url(#clipPath2)"/>
      <text x="91.0887" xml:space="preserve" y="423.656" clip-path="url(#clipPath2)" font-family="sans-serif" stroke="none">router ssid</text>
    </g>
    <g fill="rgb(255,204,0)" text-rendering="geometricPrecision" shape-rendering="geometricPrecision" transform="matrix(1,0,0,1,15,15)" stroke="rgb(255,204,0)">
      <rect x="566.5187" width="30" height="30" y="170" clip-path="url(#clipPath2)" stroke="none"/>
    </g>
    <g text-rendering="geometricPrecision" stroke-miterlimit="1.45" shape-rendering="geometricPrecision" transform="matrix(1,0,0,1,15,15)" stroke-linecap="butt">
      <rect fill="none" x="566.5187" width="30" height="30" y="170" clip-path="url(#clipPath2)"/>
      <text x="529.4803" xml:space="preserve" y="189.656" clip-path="url(#clipPath2)" font-family="sans-serif" stroke="none">usage information</text>
    </g>
    <g fill="rgb(255,204,0)" text-rendering="geometricPrecision" shape-rendering="geometricPrecision" transform="matrix(1,0,0,1,15,15)" stroke="rgb(255,204,0)">
      <rect x="948.2825" width="30" height="30" y="279" clip-path="url(#clipPath2)" stroke="none"/>
    </g>
    <g text-rendering="geometricPrecision" stroke-miterlimit="1.45" shape-rendering="geometricPrecision" transform="matrix(1,0,0,1,15,15)" stroke-linecap="butt">
      <rect fill="none" x="948.2825" width="30" height="30" y="279" clip-path="url(#clipPath2)"/>
      <text x="905.2261" xml:space="preserve" y="298.656" clip-path="url(#clipPath2)" font-family="sans-serif" stroke="none">tracking information</text>
    </g>
    <g fill="rgb(255,204,0)" text-rendering="geometricPrecision" shape-rendering="geometricPrecision" transform="matrix(1,0,0,1,15,15)" stroke="rgb(255,204,0)">
      <rect x="925.744" width="30" height="30" y="404" clip-path="url(#clipPath2)" stroke="none"/>
    </g>
    <g text-rendering="geometricPrecision" stroke-miterlimit="1.45" shape-rendering="geometricPrecision" transform="matrix(1,0,0,1,15,15)" stroke-linecap="butt">
      <rect fill="none" x="925.744" width="30" height="30" y="404" clip-path="url(#clipPath2)"/>
      <text x="915.2258" xml:space="preserve" y="423.656" clip-path="url(#clipPath2)" font-family="sans-serif" stroke="none">identifier</text>
    </g>
    <g fill="rgb(255,204,0)" text-rendering="geometricPrecision" shape-rendering="geometricPrecision" transform="matrix(1,0,0,1,15,15)" stroke="rgb(255,204,0)">
      <rect x="1236.4317" width="30" height="30" y="782" clip-path="url(#clipPath2)" stroke="none"/>
    </g>
    <g text-rendering="geometricPrecision" stroke-miterlimit="1.45" shape-rendering="geometricPrecision" transform="matrix(1,0,0,1,15,15)" stroke-linecap="butt">
      <rect fill="none" x="1236.4317" width="30" height="30" y="782" clip-path="url(#clipPath2)"/>
      <text x="1223.6936" xml:space="preserve" y="801.656" clip-path="url(#clipPath2)" font-family="sans-serif" stroke="none">area code</text>
      <path fill="none" d="M897.7258 200 L897.7258 231.5 L1116.7075 231.5 L1116.7075 270.9536" clip-path="url(#clipPath2)"/>
      <path d="M1116.7075 278.9536 L1121.7075 266.9536 L1116.7075 269.9536 L1111.7075 266.9536 Z" clip-path="url(#clipPath2)" stroke="none"/>
      <path fill="none" d="M1110.7075 309 L1110.7075 388.5 L1039.7349 388.5 L1039.7349 395.9697" clip-path="url(#clipPath2)"/>
      <path d="M1039.7349 403.9697 L1044.7349 391.9697 L1039.7349 394.9697 L1034.7349 391.9697 Z" clip-path="url(#clipPath2)" stroke="none"/>
      <path fill="none" d="M1122.7075 309 L1122.7075 340.5 L1202.2604 340.5 L1202.2604 395.969" clip-path="url(#clipPath2)"/>
      <path d="M1202.2604 403.969 L1207.2604 391.969 L1202.2604 394.969 L1197.2604 391.969 Z" clip-path="url(#clipPath2)" stroke="none"/>
      <path fill="none" d="M882.7258 200 L882.7258 263.5 L881.7258 263.5 L881.7258 434.5 L856.4048 434.5 L856.4048 473.9536" clip-path="url(#clipPath2)"/>
      <path d="M856.4048 481.9536 L861.4048 469.9536 L856.4048 472.9536 L851.4048 469.9536 Z" clip-path="url(#clipPath2)" stroke="none"/>
      <path fill="none" d="M849.7381 512 L849.7381 559.5 L632.0643 559.5 L632.0643 630.9612" clip-path="url(#clipPath2)"/>
      <path d="M632.0643 638.9612 L637.0643 626.9612 L632.0643 629.9612 L627.0643 626.9612 Z" clip-path="url(#clipPath2)" stroke="none"/>
      <path fill="none" d="M1194.7604 434 L1194.7604 473.9531" clip-path="url(#clipPath2)"/>
      <path d="M1194.7604 481.9531 L1199.7604 469.9531 L1194.7604 472.9531 L1189.7604 469.9531 Z" clip-path="url(#clipPath2)" stroke="none"/>
      <path fill="none" d="M1116.7075 309 L1116.7075 449.5 L1179.7604 449.5 L1179.7604 473.9683" clip-path="url(#clipPath2)"/>
      <path d="M1179.7604 481.9683 L1184.7604 469.9683 L1179.7604 472.9683 L1174.7604 469.9683 Z" clip-path="url(#clipPath2)" stroke="none"/>
      <path fill="none" d="M869.7381 512 L869.7381 591.5 L1098.9642 591.5 L1098.9642 630.9536" clip-path="url(#clipPath2)"/>
      <path d="M1098.9642 638.9536 L1103.9642 626.9536 L1098.9642 629.9536 L1093.9642 626.9536 Z" clip-path="url(#clipPath2)" stroke="none"/>
      <path fill="none" d="M877.7258 200 L877.7258 215.5 L875.7258 215.5 L875.7258 356.5 L653.8174 356.5 L653.8174 395.9536" clip-path="url(#clipPath2)"/>
      <path d="M653.8174 403.9536 L658.8174 391.9536 L653.8174 394.9536 L648.8174 391.9536 Z" clip-path="url(#clipPath2)" stroke="none"/>
      <path fill="none" d="M716.0179 200 L716.0179 263.5 L734.0084 263.5 L734.0084 324.5 L647.1508 324.5 L647.1508 395.9612" clip-path="url(#clipPath2)"/>
      <path d="M647.1508 403.9612 L652.1508 391.9612 L647.1508 394.9612 L642.1508 391.9612 Z" clip-path="url(#clipPath2)" stroke="none"/>
      <path fill="none" d="M359.8067 309 L359.8067 356.5 L633.8174 356.5 L633.8174 395.9536" clip-path="url(#clipPath2)"/>
      <path d="M633.8174 403.9536 L638.8174 391.9536 L633.8174 394.9536 L628.8174 391.9536 Z" clip-path="url(#clipPath2)" stroke="none"/>
      <path fill="none" d="M1104.7075 309 L1104.7075 372.5 L657.1508 372.5 L657.1508 395.9692" clip-path="url(#clipPath2)"/>
      <path d="M657.1508 403.9692 L662.1508 391.9692 L657.1508 394.9692 L652.1508 391.9692 Z" clip-path="url(#clipPath2)" stroke="none"/>
      <path fill="none" d="M433.5962 30 L433.5962 45.5 L226.8496 45.5 L226.8496 52.9697" clip-path="url(#clipPath2)"/>
      <path d="M226.8496 60.9697 L231.8496 48.9697 L226.8496 51.9697 L221.8496 48.9697 Z" clip-path="url(#clipPath2)" stroke="none"/>
      <path fill="none" d="M219.3496 309 L219.3496 395.9536" clip-path="url(#clipPath2)"/>
      <path d="M219.3496 403.9536 L224.3496 391.9536 L219.3496 394.9536 L214.3496 391.9536 Z" clip-path="url(#clipPath2)" stroke="none"/>
      <path fill="none" d="M234.3496 309 L234.3496 372.5 L630.4841 372.5 L630.4841 395.9692" clip-path="url(#clipPath2)"/>
      <path d="M630.4841 403.9692 L635.4841 391.9692 L630.4841 394.9692 L625.4841 391.9692 Z" clip-path="url(#clipPath2)" stroke="none"/>
      <path fill="none" d="M866.4048 512 L866.4048 607.5 L1031.7615 607.5 L1031.7615 630.9692" clip-path="url(#clipPath2)"/>
      <path d="M1031.7615 638.9692 L1036.7615 626.9692 L1031.7615 629.9692 L1026.7615 626.9692 Z" clip-path="url(#clipPath2)" stroke="none"/>
      <path fill="none" d="M706.0179 200 L706.0179 226.6721 L651.3174 226.6721 L651.3174 270.9745" clip-path="url(#clipPath2)"/>
      <path d="M651.3174 278.9745 L656.3174 266.9745 L651.3174 269.9745 L646.3174 266.9745 Z" clip-path="url(#clipPath2)" stroke="none"/>
      <path fill="none" d="M643.8174 309 L643.8174 395.9536" clip-path="url(#clipPath2)"/>
      <path d="M643.8174 403.9536 L648.8174 391.9536 L643.8174 394.9536 L638.8174 391.9536 Z" clip-path="url(#clipPath2)" stroke="none"/>
      <path fill="none" d="M863.0714 512 L863.0714 623.5 L945.3167 623.5 L945.3167 630.9697" clip-path="url(#clipPath2)"/>
      <path d="M945.3167 638.9697 L950.3167 626.9697 L945.3167 629.9697 L940.3167 626.9697 Z" clip-path="url(#clipPath2)" stroke="none"/>
      <path fill="none" d="M846.4048 512 L846.4048 543.5 L601.5643 543.5 L601.5643 700.5 L1243.9318 700.5 L1243.9318 723.9692" clip-path="url(#clipPath2)"/>
      <path d="M1243.9318 731.9692 L1248.9318 719.9692 L1243.9318 722.9692 L1238.9318 719.9692 Z" clip-path="url(#clipPath2)" stroke="none"/>
      <path fill="none" d="M902.7258 200 L902.7258 215.5 L1302.0631 215.5 L1302.0631 560.5 L1272.0568 560.5 L1272.0568 630.9617" clip-path="url(#clipPath2)"/>
      <path d="M1272.0568 638.9617 L1277.0568 626.9617 L1272.0568 629.9617 L1267.0568 626.9617 Z" clip-path="url(#clipPath2)" stroke="none"/>
      <path fill="none" d="M726.0179 200 L726.0179 247.5 L1292.5631 247.5 L1292.5631 528.5 L1264.5568 528.5 L1264.5568 630.973" clip-path="url(#clipPath2)"/>
      <path d="M1264.5568 638.973 L1269.5568 626.973 L1264.5568 629.973 L1259.5568 626.973 Z" clip-path="url(#clipPath2)" stroke="none"/>
      <path fill="none" d="M1209.7604 434 L1209.7604 449.5 L1257.0568 449.5 L1257.0568 630.9537" clip-path="url(#clipPath2)"/>
      <path d="M1257.0568 638.9537 L1262.0568 626.9537 L1257.0568 629.9537 L1252.0568 626.9537 Z" clip-path="url(#clipPath2)" stroke="none"/>
      <path fill="none" d="M1039.7349 434 L1039.7349 543.5 L1249.5568 543.5 L1249.5568 630.9534" clip-path="url(#clipPath2)"/>
      <path d="M1249.5568 638.9534 L1254.5568 626.9534 L1249.5568 629.9534 L1244.5568 626.9534 Z" clip-path="url(#clipPath2)" stroke="none"/>
      <path fill="none" d="M1297.3131 200 L1297.3131 544.5 L1268.3068 544.5 L1268.3068 630.9539" clip-path="url(#clipPath2)"/>
      <path d="M1268.3068 638.9539 L1273.3068 626.9539 L1268.3068 629.9539 L1263.3068 626.9539 Z" clip-path="url(#clipPath2)" stroke="none"/>
      <path fill="none" d="M1128.7075 309 L1128.7075 324.5 L1287.8131 324.5 L1287.8131 512.5 L1260.8068 512.5 L1260.8068 630.9691" clip-path="url(#clipPath2)"/>
      <path d="M1260.8068 638.9691 L1265.8068 626.9691 L1260.8068 629.9691 L1255.8068 626.9691 Z" clip-path="url(#clipPath2)" stroke="none"/>
      <path fill="none" d="M1187.2604 512 L1187.2604 527.5 L1253.3068 527.5 L1253.3068 630.9728" clip-path="url(#clipPath2)"/>
      <path d="M1253.3068 638.9728 L1258.3068 626.9728 L1253.3068 629.9728 L1248.3068 626.9728 Z" clip-path="url(#clipPath2)" stroke="none"/>
      <path fill="none" d="M1258.9318 669 L1258.9318 723.9692" clip-path="url(#clipPath2)"/>
      <path d="M1258.9318 731.9692 L1263.9318 719.9692 L1258.9318 722.9692 L1253.9318 719.9692 Z" clip-path="url(#clipPath2)" stroke="none"/>
      <path fill="none" d="M1248.9318 669 L1248.9318 684.5 L1165.8008 684.5 L1165.8008 723.9536" clip-path="url(#clipPath2)"/>
      <path d="M1165.8008 731.9536 L1170.8008 719.9536 L1165.8008 722.9536 L1160.8008 719.9536 Z" clip-path="url(#clipPath2)" stroke="none"/>
      <path fill="none" d="M859.7381 512 L859.7381 630.969" clip-path="url(#clipPath2)"/>
      <path d="M859.7381 638.969 L864.7381 626.969 L859.7381 629.969 L854.7381 626.969 Z" clip-path="url(#clipPath2)" stroke="none"/>
      <path fill="none" d="M856.4048 512 L856.4048 591.5 L781.8095 591.5 L781.8095 630.9536" clip-path="url(#clipPath2)"/>
      <path d="M781.8095 638.9536 L786.8095 626.9536 L781.8095 629.9536 L776.8095 626.9536 Z" clip-path="url(#clipPath2)" stroke="none"/>
      <path fill="none" d="M812.3671 309 L812.3671 340.5 L897.7258 340.5 L897.7258 466.5 L932.244 466.5 L932.244 575.5 L1245.8068 575.5 L1245.8068 630.969" clip-path="url(#clipPath2)"/>
      <path d="M1245.8068 638.969 L1250.8068 626.969 L1245.8068 629.969 L1240.8068 626.969 Z" clip-path="url(#clipPath2)" stroke="none"/>
      <path fill="none" d="M797.3671 309 L797.3671 340.5 L650.4841 340.5 L650.4841 395.969" clip-path="url(#clipPath2)"/>
      <path d="M650.4841 403.969 L655.4841 391.969 L650.4841 394.969 L645.4841 391.969 Z" clip-path="url(#clipPath2)" stroke="none"/>
      <path fill="none" d="M495.7159 200 L495.7159 270.9614" clip-path="url(#clipPath2)"/>
      <path d="M495.7159 278.9614 L500.7159 266.9614 L495.7159 269.9614 L490.7159 266.9614 Z" clip-path="url(#clipPath2)" stroke="none"/>
      <path fill="none" d="M843.0714 512 L843.0714 527.5 L88.5885 527.5 L88.5885 630.9728" clip-path="url(#clipPath2)"/>
      <path d="M88.5885 638.9728 L93.5885 626.9728 L88.5885 629.9728 L83.5885 626.9728 Z" clip-path="url(#clipPath2)" stroke="none"/>
      <path fill="none" d="M73.5885 309 L73.5885 630.9597" clip-path="url(#clipPath2)"/>
      <path d="M73.5885 638.9597 L78.5885 626.9597 L73.5885 629.9597 L68.5885 626.9597 Z" clip-path="url(#clipPath2)" stroke="none"/>
      <path fill="none" d="M853.0714 512 L853.0714 575.5 L687.9726 575.5 L687.9726 630.969" clip-path="url(#clipPath2)"/>
      <path d="M687.9726 638.969 L692.9726 626.969 L687.9726 629.969 L682.9726 626.969 Z" clip-path="url(#clipPath2)" stroke="none"/>
      <path fill="none" d="M448.5962 30 L448.5962 45.5 L655.3428 45.5 L655.3428 52.9697" clip-path="url(#clipPath2)"/>
      <path d="M655.3428 60.9697 L660.3428 48.9697 L655.3428 51.9697 L650.3428 48.9697 Z" clip-path="url(#clipPath2)" stroke="none"/>
      <path fill="none" d="M663.9143 91 L663.9143 122.5 L890.2258 122.5 L890.2258 161.9536" clip-path="url(#clipPath2)"/>
      <path d="M890.2258 169.9536 L895.2258 157.9536 L890.2258 160.9536 L885.2258 157.9536 Z" clip-path="url(#clipPath2)" stroke="none"/>
      <path fill="none" d="M659.6286 91 L659.6286 138.5 L804.8671 138.5 L804.8671 270.9657" clip-path="url(#clipPath2)"/>
      <path d="M804.8671 278.9657 L809.8671 266.9657 L804.8671 269.9657 L799.8671 266.9657 Z" clip-path="url(#clipPath2)" stroke="none"/>
      <path fill="none" d="M655.3428 91 L655.3428 154.5 L716.0179 154.5 L716.0179 161.9697" clip-path="url(#clipPath2)"/>
      <path d="M716.0179 169.9697 L721.0179 157.9697 L716.0179 160.9697 L711.0179 157.9697 Z" clip-path="url(#clipPath2)" stroke="none"/>
      <path fill="none" d="M651.0571 91 L651.0571 210.6721 L636.3174 210.6721 L636.3174 270.9666" clip-path="url(#clipPath2)"/>
      <path d="M636.3174 278.9666 L641.3174 266.9666 L636.3174 269.9666 L631.3174 266.9666 Z" clip-path="url(#clipPath2)" stroke="none"/>
      <path fill="none" d="M668.2 91 L668.2 106.5 L1297.3131 106.5 L1297.3131 161.969" clip-path="url(#clipPath2)"/>
      <path d="M1297.3131 169.969 L1302.3131 157.969 L1297.3131 160.969 L1292.3131 157.969 Z" clip-path="url(#clipPath2)" stroke="none"/>
      <path fill="none" d="M642.4857 91 L642.4857 106.5 L495.7159 106.5 L495.7159 161.969" clip-path="url(#clipPath2)"/>
      <path d="M495.7159 169.969 L500.7159 157.969 L495.7159 160.969 L490.7159 157.969 Z" clip-path="url(#clipPath2)" stroke="none"/>
      <path fill="none" d="M1268.9318 669 L1268.9318 684.5 L1345.0825 684.5 L1345.0825 723.9536" clip-path="url(#clipPath2)"/>
      <path d="M1345.0825 731.9536 L1350.0825 719.9536 L1345.0825 722.9536 L1340.0825 719.9536 Z" clip-path="url(#clipPath2)" stroke="none"/>
      <path fill="none" d="M226.8496 91 L226.8496 161.9614" clip-path="url(#clipPath2)"/>
      <path d="M226.8496 169.9614 L231.8496 157.9614 L226.8496 160.9614 L221.8496 157.9614 Z" clip-path="url(#clipPath2)" stroke="none"/>
      <path fill="none" d="M218.2782 200 L218.2782 231.5 L5.2857 231.5 L5.2857 716.5 L1145.8008 716.5 L1145.8008 723.9697" clip-path="url(#clipPath2)"/>
      <path d="M1145.8008 731.9697 L1150.8008 719.9697 L1145.8008 722.9697 L1140.8008 719.9697 Z" clip-path="url(#clipPath2)" stroke="none"/>
      <path fill="none" d="M239.7067 200 L239.7067 215.5 L480.7159 215.5 L480.7159 270.969" clip-path="url(#clipPath2)"/>
      <path d="M480.7159 278.969 L485.7159 266.969 L480.7159 269.969 L475.7159 266.969 Z" clip-path="url(#clipPath2)" stroke="none"/>
      <path fill="none" d="M231.1353 200 L231.1353 247.5 L359.8067 247.5 L359.8067 270.9692" clip-path="url(#clipPath2)"/>
      <path d="M359.8067 278.9692 L364.8067 266.9692 L359.8067 269.9692 L354.8067 266.9692 Z" clip-path="url(#clipPath2)" stroke="none"/>
      <path fill="none" d="M213.9925 200 L213.9925 215.5 L0 215.5 L0 449.5 L846.4048 449.5 L846.4048 473.9683" clip-path="url(#clipPath2)"/>
      <path d="M846.4048 481.9683 L851.4048 469.9683 L846.4048 472.9683 L841.4048 469.9683 Z" clip-path="url(#clipPath2)" stroke="none"/>
      <path fill="none" d="M222.5639 200 L222.5639 247.5 L81.0885 247.5 L81.0885 270.9692" clip-path="url(#clipPath2)"/>
      <path d="M81.0885 278.9692 L86.0885 266.9692 L81.0885 269.9692 L76.0885 266.9692 Z" clip-path="url(#clipPath2)" stroke="none"/>
      <path fill="none" d="M235.421 200 L235.421 231.5 L422.8051 231.5 L422.8051 340.5 L637.1508 340.5 L637.1508 395.969" clip-path="url(#clipPath2)"/>
      <path d="M637.1508 403.969 L642.1508 391.969 L637.1508 394.969 L632.1508 391.969 Z" clip-path="url(#clipPath2)" stroke="none"/>
      <path fill="none" d="M226.8496 200 L226.8496 270.9614" clip-path="url(#clipPath2)"/>
      <path d="M226.8496 278.9614 L231.8496 266.9614 L226.8496 269.9614 L221.8496 266.9614 Z" clip-path="url(#clipPath2)" stroke="none"/>
      <path fill="none" d="M88.5885 309 L88.5885 324.5 L121.479 324.5 L121.479 395.9612" clip-path="url(#clipPath2)"/>
      <path d="M121.479 403.9612 L126.479 391.9612 L121.479 394.9612 L116.479 391.9612 Z" clip-path="url(#clipPath2)" stroke="none"/>
      <path fill="none" d="M646.7714 91 L646.7714 122.5 L581.5187 122.5 L581.5187 161.9536" clip-path="url(#clipPath2)"/>
      <path d="M581.5187 169.9536 L586.5187 157.9536 L581.5187 160.9536 L576.5187 157.9536 Z" clip-path="url(#clipPath2)" stroke="none"/>
      <path fill="none" d="M581.5187 200 L581.5187 215.5 L553.6266 215.5 L553.6266 324.5 L640.4841 324.5 L640.4841 395.9612" clip-path="url(#clipPath2)"/>
      <path d="M640.4841 403.9612 L645.4841 391.9612 L640.4841 394.9612 L635.4841 391.9612 Z" clip-path="url(#clipPath2)" stroke="none"/>
      <path fill="none" d="M892.7258 200 L892.7258 263.5 L963.2825 263.5 L963.2825 270.9697" clip-path="url(#clipPath2)"/>
      <path d="M963.2825 278.9697 L968.2825 266.9697 L963.2825 269.9697 L958.2825 266.9697 Z" clip-path="url(#clipPath2)" stroke="none"/>
      <path fill="none" d="M887.7258 200 L887.7258 324.5 L933.244 324.5 L933.244 395.9612" clip-path="url(#clipPath2)"/>
      <path d="M933.244 403.9612 L938.244 391.9612 L933.244 394.9612 L928.244 391.9612 Z" clip-path="url(#clipPath2)" stroke="none"/>
      <path fill="none" d="M963.2825 309 L963.2825 324.5 L948.244 324.5 L948.244 395.9612" clip-path="url(#clipPath2)"/>
      <path d="M948.244 403.9612 L953.244 391.9612 L948.244 394.9612 L943.244 391.9612 Z" clip-path="url(#clipPath2)" stroke="none"/>
      <path fill="none" d="M948.244 434 L948.244 559.5 L1155.8008 559.5 L1155.8008 723.9579" clip-path="url(#clipPath2)"/>
      <path d="M1155.8008 731.9579 L1160.8008 719.9579 L1155.8008 722.9579 L1150.8008 719.9579 Z" clip-path="url(#clipPath2)" stroke="none"/>
      <path fill="none" d="M933.244 434 L933.244 450.5 L866.4048 450.5 L866.4048 473.9692" clip-path="url(#clipPath2)"/>
      <path d="M866.4048 481.9692 L871.4048 469.9692 L866.4048 472.9692 L861.4048 469.9692 Z" clip-path="url(#clipPath2)" stroke="none"/>
      <path fill="none" d="M1251.4318 762 L1251.4318 773.9609" clip-path="url(#clipPath2)"/>
      <path d="M1251.4318 781.9609 L1256.4318 769.9609 L1251.4318 772.9609 L1246.4318 769.9609 Z" clip-path="url(#clipPath2)" stroke="none"/>
    </g>
  </g>
</svg>
