<?xml version="1.0" encoding="UTF-8"?><svg xmlns="http://www.w3.org/2000/svg" xmlns:xlink="http://www.w3.org/1999/xlink" fill-opacity="1" color-rendering="auto" color-interpolation="auto" text-rendering="auto" stroke="black" stroke-linecap="square" width="829" stroke-miterlimit="10" shape-rendering="auto" stroke-opacity="1" fill="black" stroke-dasharray="none" font-weight="normal" stroke-width="1" height="336" font-family="'Dialog'" font-style="normal" stroke-linejoin="miter" font-size="12px" stroke-dashoffset="0" image-rendering="auto">
  <!--Generated by ySVG 2.5-->
  <defs id="genericDefs"/>
  <g>
    <defs id="defs1">
      <clipPath clipPathUnits="userSpaceOnUse" id="clipPath1">
        <path d="M0 0 L829 0 L829 336 L0 336 L0 0 Z"/>
      </clipPath>
      <clipPath clipPathUnits="userSpaceOnUse" id="clipPath2">
        <path d="M-10 -15 L819 -15 L819 321 L-10 321 L-10 -15 Z"/>
      </clipPath>
    </defs>
    <g fill="white" text-rendering="geometricPrecision" shape-rendering="geometricPrecision" transform="translate(10,15)" stroke="white">
      <rect x="-10" width="829" height="336" y="-15" clip-path="url(#clipPath2)" stroke="none"/>
    </g>
    <g fill="rgb(255,204,0)" text-rendering="geometricPrecision" shape-rendering="geometricPrecision" transform="matrix(1,0,0,1,10,15)" stroke="rgb(255,204,0)">
      <rect x="446.8506" width="30" height="30" y="276" clip-path="url(#clipPath2)" stroke="none"/>
    </g>
    <g text-rendering="geometricPrecision" stroke-miterlimit="1.45" shape-rendering="geometricPrecision" transform="matrix(1,0,0,1,10,15)" stroke-linecap="butt">
      <rect fill="none" x="446.8506" width="30" height="30" y="276" clip-path="url(#clipPath2)"/>
      <text x="421.1583" xml:space="preserve" y="295.656" clip-path="url(#clipPath2)" font-family="sans-serif" stroke="none">social network</text>
    </g>
    <g fill="rgb(255,204,0)" text-rendering="geometricPrecision" shape-rendering="geometricPrecision" transform="matrix(1,0,0,1,10,15)" stroke="rgb(255,204,0)">
      <rect x="95.8365" width="30" height="30" y="154" clip-path="url(#clipPath2)" stroke="none"/>
    </g>
    <g text-rendering="geometricPrecision" stroke-miterlimit="1.45" shape-rendering="geometricPrecision" transform="matrix(1,0,0,1,10,15)" stroke-linecap="butt">
      <rect fill="none" x="95.8365" width="30" height="30" y="154" clip-path="url(#clipPath2)"/>
      <text x="82.0003" xml:space="preserve" y="173.656" clip-path="url(#clipPath2)" font-family="sans-serif" stroke="none">subsidiary</text>
    </g>
    <g fill="rgb(255,204,0)" text-rendering="geometricPrecision" shape-rendering="geometricPrecision" transform="matrix(1,0,0,1,10,15)" stroke="rgb(255,204,0)">
      <rect x="730.5187" width="30" height="30" y="215" clip-path="url(#clipPath2)" stroke="none"/>
    </g>
    <g text-rendering="geometricPrecision" stroke-miterlimit="1.45" shape-rendering="geometricPrecision" transform="matrix(1,0,0,1,10,15)" stroke-linecap="butt">
      <rect fill="none" x="730.5187" width="30" height="30" y="215" clip-path="url(#clipPath2)"/>
      <text x="689.1722" xml:space="preserve" y="234.656" clip-path="url(#clipPath2)" font-family="sans-serif" stroke="none">advertising network</text>
    </g>
    <g fill="rgb(255,204,0)" text-rendering="geometricPrecision" shape-rendering="geometricPrecision" transform="matrix(1,0,0,1,10,15)" stroke="rgb(255,204,0)">
      <rect x="471.6869" width="30" height="30" y="154" clip-path="url(#clipPath2)" stroke="none"/>
    </g>
    <g text-rendering="geometricPrecision" stroke-miterlimit="1.45" shape-rendering="geometricPrecision" transform="matrix(1,0,0,1,10,15)" stroke-linecap="butt">
      <rect fill="none" x="471.6869" width="30" height="30" y="154" clip-path="url(#clipPath2)"/>
      <text x="439.5386" xml:space="preserve" y="173.656" clip-path="url(#clipPath2)" font-family="sans-serif" stroke="none">analytic provider</text>
    </g>
    <g fill="rgb(255,204,0)" text-rendering="geometricPrecision" shape-rendering="geometricPrecision" transform="matrix(1,0,0,1,10,15)" stroke="rgb(255,204,0)">
      <rect x="599.9837" width="30" height="30" y="215" clip-path="url(#clipPath2)" stroke="none"/>
    </g>
    <g text-rendering="geometricPrecision" stroke-miterlimit="1.45" shape-rendering="geometricPrecision" transform="matrix(1,0,0,1,10,15)" stroke-linecap="butt">
      <rect fill="none" x="599.9837" width="30" height="30" y="215" clip-path="url(#clipPath2)"/>
      <text x="574.7954" xml:space="preserve" y="234.656" clip-path="url(#clipPath2)" font-family="sans-serif" stroke="none">news provider</text>
    </g>
    <g fill="rgb(255,204,0)" text-rendering="geometricPrecision" shape-rendering="geometricPrecision" transform="matrix(1,0,0,1,10,15)" stroke="rgb(255,204,0)">
      <rect x="20" width="30" height="30" y="61" clip-path="url(#clipPath2)" stroke="none"/>
    </g>
    <g text-rendering="geometricPrecision" stroke-miterlimit="1.45" shape-rendering="geometricPrecision" transform="matrix(1,0,0,1,10,15)" stroke-linecap="butt">
      <rect fill="none" x="20" width="30" height="30" y="61" clip-path="url(#clipPath2)"/>
      <text x="7.5498" xml:space="preserve" y="80.656" clip-path="url(#clipPath2)" font-family="sans-serif" stroke="none">first party</text>
    </g>
    <g fill="rgb(255,204,0)" text-rendering="geometricPrecision" shape-rendering="geometricPrecision" transform="matrix(1,0,0,1,10,15)" stroke="rgb(255,204,0)">
      <rect x="20" width="30" height="30" y="154" clip-path="url(#clipPath2)" stroke="none"/>
    </g>
    <g text-rendering="geometricPrecision" stroke-miterlimit="1.45" shape-rendering="geometricPrecision" transform="matrix(1,0,0,1,10,15)" stroke-linecap="butt">
      <rect fill="none" x="20" width="30" height="30" y="154" clip-path="url(#clipPath2)"/>
      <text x="26.8999" xml:space="preserve" y="173.656" clip-path="url(#clipPath2)" font-family="sans-serif" stroke="none">we</text>
    </g>
    <g fill="rgb(255,204,0)" text-rendering="geometricPrecision" shape-rendering="geometricPrecision" transform="matrix(1,0,0,1,10,15)" stroke="rgb(255,204,0)">
      <rect x="304.606" width="30" height="30" y="154" clip-path="url(#clipPath2)" stroke="none"/>
    </g>
    <g text-rendering="geometricPrecision" stroke-miterlimit="1.45" shape-rendering="geometricPrecision" transform="matrix(1,0,0,1,10,15)" stroke-linecap="butt">
      <rect fill="none" x="304.606" width="30" height="30" y="154" clip-path="url(#clipPath2)"/>
      <text x="233.6733" xml:space="preserve" y="173.656" clip-path="url(#clipPath2)" font-family="sans-serif" stroke="none">third party payment processor</text>
    </g>
    <g fill="rgb(255,204,0)" text-rendering="geometricPrecision" shape-rendering="geometricPrecision" transform="matrix(1,0,0,1,10,15)" stroke="rgb(255,204,0)">
      <rect x="163.553" width="30" height="30" y="0" clip-path="url(#clipPath2)" stroke="none"/>
    </g>
    <g text-rendering="geometricPrecision" stroke-miterlimit="1.45" shape-rendering="geometricPrecision" transform="matrix(1,0,0,1,10,15)" stroke-linecap="butt">
      <rect fill="none" x="163.553" width="30" height="30" y="0" clip-path="url(#clipPath2)"/>
      <text x="157.6968" xml:space="preserve" y="19.656" clip-path="url(#clipPath2)" font-family="sans-serif" stroke="none">anyone</text>
    </g>
    <g fill="rgb(255,204,0)" text-rendering="geometricPrecision" shape-rendering="geometricPrecision" transform="matrix(1,0,0,1,10,15)" stroke="rgb(255,204,0)">
      <rect x="599.9837" width="30" height="30" y="154" clip-path="url(#clipPath2)" stroke="none"/>
    </g>
    <g text-rendering="geometricPrecision" stroke-miterlimit="1.45" shape-rendering="geometricPrecision" transform="matrix(1,0,0,1,10,15)" stroke-linecap="butt">
      <rect fill="none" x="599.9837" width="30" height="30" y="154" clip-path="url(#clipPath2)"/>
      <text x="567.8354" xml:space="preserve" y="173.656" clip-path="url(#clipPath2)" font-family="sans-serif" stroke="none">content provider</text>
    </g>
    <g fill="rgb(255,204,0)" text-rendering="geometricPrecision" shape-rendering="geometricPrecision" transform="matrix(1,0,0,1,10,15)" stroke="rgb(255,204,0)">
      <rect x="504.0329" width="30" height="30" y="215" clip-path="url(#clipPath2)" stroke="none"/>
    </g>
    <g text-rendering="geometricPrecision" stroke-miterlimit="1.45" shape-rendering="geometricPrecision" transform="matrix(1,0,0,1,10,15)" stroke-linecap="butt">
      <rect fill="none" x="504.0329" width="30" height="30" y="215" clip-path="url(#clipPath2)"/>
      <text x="497.2708" xml:space="preserve" y="234.656" clip-path="url(#clipPath2)" font-family="sans-serif" stroke="none">website</text>
    </g>
    <g fill="rgb(255,204,0)" text-rendering="geometricPrecision" shape-rendering="geometricPrecision" transform="matrix(1,0,0,1,10,15)" stroke="rgb(255,204,0)">
      <rect x="171.673" width="30" height="30" y="154" clip-path="url(#clipPath2)" stroke="none"/>
    </g>
    <g text-rendering="geometricPrecision" stroke-miterlimit="1.45" shape-rendering="geometricPrecision" transform="matrix(1,0,0,1,10,15)" stroke-linecap="butt">
      <rect fill="none" x="171.673" width="30" height="30" y="154" clip-path="url(#clipPath2)"/>
      <text x="176.9049" xml:space="preserve" y="173.656" clip-path="url(#clipPath2)" font-family="sans-serif" stroke="none">sdk</text>
    </g>
    <g fill="rgb(255,204,0)" text-rendering="geometricPrecision" shape-rendering="geometricPrecision" transform="matrix(1,0,0,1,10,15)" stroke="rgb(255,204,0)">
      <rect x="307.106" width="30" height="30" y="61" clip-path="url(#clipPath2)" stroke="none"/>
    </g>
    <g text-rendering="geometricPrecision" stroke-miterlimit="1.45" shape-rendering="geometricPrecision" transform="matrix(1,0,0,1,10,15)" stroke-linecap="butt">
      <rect fill="none" x="307.106" width="30" height="30" y="61" clip-path="url(#clipPath2)"/>
      <text x="292.1957" xml:space="preserve" y="80.656" clip-path="url(#clipPath2)" font-family="sans-serif" stroke="none">third party</text>
    </g>
    <g fill="rgb(255,204,0)" text-rendering="geometricPrecision" shape-rendering="geometricPrecision" transform="matrix(1,0,0,1,10,15)" stroke="rgb(255,204,0)">
      <rect x="561.2153" width="30" height="30" y="276" clip-path="url(#clipPath2)" stroke="none"/>
    </g>
    <g text-rendering="geometricPrecision" stroke-miterlimit="1.45" shape-rendering="geometricPrecision" transform="matrix(1,0,0,1,10,15)" stroke-linecap="butt">
      <rect fill="none" x="561.2153" width="30" height="30" y="276" clip-path="url(#clipPath2)"/>
      <text x="536.543" xml:space="preserve" y="295.656" clip-path="url(#clipPath2)" font-family="sans-serif" stroke="none">search engine</text>
      <path fill="none" d="M35 91 L35 145.9692" clip-path="url(#clipPath2)"/>
      <path d="M35 153.9692 L40 141.9692 L35 144.9692 L30 141.9692 Z" clip-path="url(#clipPath2)" stroke="none"/>
      <path fill="none" d="M171.053 30 L171.053 45.5 L35 45.5 L35 52.9697" clip-path="url(#clipPath2)"/>
      <path d="M35 60.9697 L40 48.9697 L35 51.9697 L30 48.9697 Z" clip-path="url(#clipPath2)" stroke="none"/>
      <path fill="none" d="M614.9837 184 L614.9837 206.9697" clip-path="url(#clipPath2)"/>
      <path d="M614.9837 214.9697 L619.9837 202.9697 L614.9837 205.9697 L609.9837 202.9697 Z" clip-path="url(#clipPath2)" stroke="none"/>
      <path fill="none" d="M624.9837 184 L624.9837 199.5 L738.0187 199.5 L738.0187 206.9697" clip-path="url(#clipPath2)"/>
      <path d="M738.0187 214.9697 L743.0187 202.9697 L738.0187 205.9697 L733.0187 202.9697 Z" clip-path="url(#clipPath2)" stroke="none"/>
      <path fill="none" d="M604.9837 184 L604.9837 199.5 L519.033 199.5 L519.033 206.9697" clip-path="url(#clipPath2)"/>
      <path d="M519.033 214.9697 L524.033 202.9697 L519.033 205.9697 L514.033 202.9697 Z" clip-path="url(#clipPath2)" stroke="none"/>
      <path fill="none" d="M511.5329 245 L511.5329 260.5 L461.8506 260.5 L461.8506 267.9697" clip-path="url(#clipPath2)"/>
      <path d="M461.8506 275.9697 L466.8506 263.9697 L461.8506 266.9697 L456.8506 263.9697 Z" clip-path="url(#clipPath2)" stroke="none"/>
      <path fill="none" d="M186.053 30 L186.053 45.5 L322.106 45.5 L322.106 52.9697" clip-path="url(#clipPath2)"/>
      <path d="M322.106 60.9697 L327.106 48.9697 L322.106 51.9697 L317.106 48.9697 Z" clip-path="url(#clipPath2)" stroke="none"/>
      <path fill="none" d="M319.606 91 L319.606 145.9692" clip-path="url(#clipPath2)"/>
      <path d="M319.606 153.9692 L324.606 141.9692 L319.606 144.9692 L314.606 141.9692 Z" clip-path="url(#clipPath2)" stroke="none"/>
      <path fill="none" d="M324.606 91 L324.606 138.5 L486.6869 138.5 L486.6869 145.9697" clip-path="url(#clipPath2)"/>
      <path d="M486.6869 153.9697 L491.6869 141.9697 L486.6869 144.9697 L481.6869 141.9697 Z" clip-path="url(#clipPath2)" stroke="none"/>
      <path fill="none" d="M334.606 91 L334.606 106.5 L753.0187 106.5 L753.0187 206.9735" clip-path="url(#clipPath2)"/>
      <path d="M753.0187 214.9735 L758.0187 202.9735 L753.0187 205.9735 L748.0187 202.9735 Z" clip-path="url(#clipPath2)" stroke="none"/>
      <path fill="none" d="M309.606 91 L309.606 106.5 L110.8365 106.5 L110.8365 145.9536" clip-path="url(#clipPath2)"/>
      <path d="M110.8365 153.9536 L115.8365 141.9536 L110.8365 144.9536 L105.8365 141.9536 Z" clip-path="url(#clipPath2)" stroke="none"/>
      <path fill="none" d="M329.606 91 L329.606 122.5 L614.9837 122.5 L614.9837 145.9692" clip-path="url(#clipPath2)"/>
      <path d="M614.9837 153.9692 L619.9837 141.9692 L614.9837 144.9692 L609.9837 141.9692 Z" clip-path="url(#clipPath2)" stroke="none"/>
      <path fill="none" d="M314.606 91 L314.606 122.5 L186.673 122.5 L186.673 145.9692" clip-path="url(#clipPath2)"/>
      <path d="M186.673 153.9692 L191.673 141.9692 L186.673 144.9692 L181.673 141.9692 Z" clip-path="url(#clipPath2)" stroke="none"/>
      <path fill="none" d="M526.533 245 L526.533 260.5 L576.2153 260.5 L576.2153 267.9697" clip-path="url(#clipPath2)"/>
      <path d="M576.2153 275.9697 L581.2153 263.9697 L576.2153 266.9697 L571.2153 263.9697 Z" clip-path="url(#clipPath2)" stroke="none"/>
    </g>
  </g>
</svg>
